<?xml version="1.0" encoding="utf-8" standalone="no"?>
<!DOCTYPE svg PUBLIC "-//W3C//DTD SVG 1.1//EN"
  "http://www.w3.org/Graphics/SVG/1.1/DTD/svg11.dtd">
<svg xmlns:xlink="http://www.w3.org/1999/xlink" width="418.72252pt" height="467.550236pt" viewBox="0 0 418.72252 467.550236" xmlns="http://www.w3.org/2000/svg" version="1.1">
 <metadata>
  <rdf:RDF xmlns:dc="http://purl.org/dc/elements/1.1/" xmlns:cc="http://creativecommons.org/ns#" xmlns:rdf="http://www.w3.org/1999/02/22-rdf-syntax-ns#">
   <cc:Work>
    <dc:type rdf:resource="http://purl.org/dc/dcmitype/StillImage"/>
    <dc:date>2026-08-26T20:28:08.507795</dc:date>
    <dc:format>image/svg+xml</dc:format>
    <dc:creator>
     <cc:Agent>
      <dc:title>Matplotlib v3.11.1, https://matplotlib.org/</dc:title>
     </cc:Agent>
    </dc:creator>
   </cc:Work>
  </rdf:RDF>
 </metadata>
 <defs>
  <style type="text/css">*{stroke-linejoin: round; stroke-linecap: butt}</style>
 </defs>
 <g id="figure_1">
  <g id="patch_1">
   <path d="M 0 467.550236 
L 418.72252 467.550236 
L 418.72252 0 
L 0 0 
z
" style="fill: #ffffff"/>
  </g>
  <g id="axes_1">
   <g id="patch_2">
    <path d="M 49.912441 87.879847 
L 274.416378 87.879847 
L 274.416378 52.472369 
L 49.912441 52.472369 
z
" style="fill: #ffffff"/>
   </g>
   <g id="line2d_1">
    <path d="M 162.164409 87.879847 
L 162.164409 52.472369 
" clip-path="url(#p0a4ae31b99)" style="fill: none; stroke-dasharray: 0.8,1.32; stroke-dashoffset: 0; stroke: #1a1a1a; stroke-width: 0.8"/>
   </g>
   <g id="matplotlib.axis_1"/>
   <g id="matplotlib.axis_2"/>
   <g id="patch_3">
    <path d="M 162.164409 80.924807 
L 186.822425 80.924807 
L 186.822425 73.33749 
L 162.164409 73.33749 
z
" clip-path="url(#p0a4ae31b99)" style="fill: #bdbdbd"/>
   </g>
   <g id="patch_4">
    <path d="M 165.566316 77.131148 
Q 166.437804 77.131148 166.191257 77.131148 
" style="fill: none; stroke: #1a1a1a; stroke-linecap: round"/>
    <path d="M 162.591257 75.331148 
L 166.191257 77.131148 
L 162.591257 78.931148 
z
" style="fill: #1a1a1a; stroke: #1a1a1a; stroke-linecap: round"/>
   </g>
   <g id="text_1">
    <text style="font-size: 7px; font-family: 'Arial'; fill: #0072b2" transform="translate(210.0856 52.786911)">4.1×</text>
    <text style="font-size: 7px; font-family: 'Arial'; fill: #0072b2" transform="translate(200.851069 60.294206)">(C37H5.6)</text>
   </g>
   <g id="text_2">
    <text style="font-size: 7px; font-family: 'Arial'; text-anchor: middle; fill: #0072b2" x="172.056614" y="60.955925" transform="rotate(-0 172.056614 60.955925)">11.8×</text>
   </g>
   <g id="text_3">
    <text style="font-style: italic; font-size: 8.5px; font-family: 'Arial'; text-anchor: end; fill: #1a1a1a" x="45.422362" y="72.388266" transform="rotate(-0 45.422362 72.388266)">hsp-6</text>
   </g>
   <g id="patch_5">
    <path d="M 204.50211 72.072937 
L 229.487528 72.072937 
L 229.487528 64.48562 
L 204.50211 64.48562 
z
" clip-path="url(#p0a4ae31b99)" style="fill: #0072b2"/>
   </g>
   <g id="patch_6">
    <path d="M 148.956094 72.072937 
L 195.157134 72.072937 
L 195.157134 64.48562 
L 148.956094 64.48562 
z
" clip-path="url(#p0a4ae31b99)" style="fill: #0072b2"/>
   </g>
  </g>
  <g id="axes_2">
   <g id="patch_7">
    <path d="M 310.132913 87.879847 
L 417.28252 87.879847 
L 417.28252 52.472369 
L 310.132913 52.472369 
z
" style="fill: #ffffff"/>
   </g>
   <g id="patch_8">
    <path d="M 310.132913 67.668078 
L 360.731339 67.668078 
L 360.731339 57.931022 
L 310.132913 57.931022 
z
" clip-path="url(#p2b48bb91ea)" style="fill: #1a1a1a"/>
   </g>
   <g id="patch_9">
    <path d="M 310.132913 82.421194 
L 339.896693 82.421194 
L 339.896693 72.684138 
L 310.132913 72.684138 
z
" clip-path="url(#p2b48bb91ea)" style="fill: #bdbdbd"/>
   </g>
   <g id="matplotlib.axis_3"/>
   <g id="matplotlib.axis_4"/>
   <g id="text_4">
    <text style="font-size: 7.5px; font-family: 'Arial'; text-anchor: start; fill: #1a1a1a" x="362.219528" y="64.740468" transform="rotate(-0 362.219528 64.740468)">29</text>
   </g>
   <g id="text_5">
    <text style="font-size: 7.5px; font-family: 'Arial'; text-anchor: start; fill: #1a1a1a" x="341.384882" y="79.493584" transform="rotate(-0 341.384882 79.493584)">43</text>
   </g>
  </g>
  <g id="axes_3">
   <g id="patch_10">
    <path d="M 49.912441 141.527541 
L 274.416378 141.527541 
L 274.416378 106.120063 
L 49.912441 106.120063 
z
" style="fill: #ffffff"/>
   </g>
   <g id="line2d_2">
    <path d="M 162.164409 141.527541 
L 162.164409 106.120063 
" clip-path="url(#pa47a96a5bf)" style="fill: none; stroke-dasharray: 0.8,1.32; stroke-dashoffset: 0; stroke: #1a1a1a; stroke-width: 0.8"/>
   </g>
   <g id="matplotlib.axis_5"/>
   <g id="matplotlib.axis_6"/>
   <g id="patch_11">
    <path d="M 162.164409 134.572501 
L 218.861008 134.572501 
L 218.861008 126.985184 
L 162.164409 126.985184 
z
" clip-path="url(#pa47a96a5bf)" style="fill: #bdbdbd"/>
   </g>
   <g id="patch_12">
    <path d="M 165.566316 130.778842 
Q 166.437804 130.778842 166.191257 130.778842 
" style="fill: none; stroke: #1a1a1a; stroke-linecap: round"/>
    <path d="M 162.591257 128.978842 
L 166.191257 130.778842 
L 162.591257 132.578842 
z
" style="fill: #1a1a1a; stroke: #1a1a1a; stroke-linecap: round"/>
   </g>
   <g id="text_6">
    <text style="font-size: 7px; font-family: 'Arial'; text-anchor: middle; fill: #0072b2" x="156.364724" y="114.601978" transform="rotate(-0 156.364724 114.601978)">3.8×</text>
   </g>
   <g id="text_7">
    <text style="font-style: italic; font-size: 8.5px; font-family: 'Arial'; text-anchor: end; fill: #1a1a1a" x="45.422362" y="126.03596" transform="rotate(-0 45.422362 126.03596)">hsp-60</text>
   </g>
   <g id="patch_13">
    <path d="M 126.44022 125.720631 
L 186.289228 125.720631 
L 186.289228 118.133314 
L 126.44022 118.133314 
z
" clip-path="url(#pa47a96a5bf)" style="fill: #0072b2"/>
   </g>
  </g>
  <g id="axes_4">
   <g id="patch_14">
    <path d="M 310.132913 141.527541 
L 417.28252 141.527541 
L 417.28252 106.120063 
L 310.132913 106.120063 
z
" style="fill: #ffffff"/>
   </g>
   <g id="patch_15">
    <path d="M 310.132913 121.315772 
L 311.621102 121.315772 
L 311.621102 111.578716 
L 310.132913 111.578716 
z
" clip-path="url(#p40925d1037)" style="fill: #1a1a1a"/>
   </g>
   <g id="patch_16">
    <path d="M 310.132913 136.068888 
L 311.621102 136.068888 
L 311.621102 126.331832 
L 310.132913 126.331832 
z
" clip-path="url(#p40925d1037)" style="fill: #bdbdbd"/>
   </g>
   <g id="matplotlib.axis_7"/>
   <g id="matplotlib.axis_8"/>
   <g id="text_8">
    <text style="font-size: 7.5px; font-family: 'Arial'; text-anchor: start; fill: #1a1a1a" x="313.109291" y="118.388162" transform="rotate(-0 313.109291 118.388162)">62</text>
   </g>
   <g id="text_9">
    <text style="font-size: 7.5px; font-family: 'Arial'; text-anchor: start; fill: #1a1a1a" x="313.109291" y="133.141278" transform="rotate(-0 313.109291 133.141278)">62</text>
   </g>
  </g>
  <g id="axes_5">
   <g id="patch_17">
    <path d="M 49.912441 195.175235 
L 274.416378 195.175235 
L 274.416378 159.767757 
L 49.912441 159.767757 
z
" style="fill: #ffffff"/>
   </g>
   <g id="line2d_3">
    <path d="M 162.164409 195.175235 
L 162.164409 159.767757 
" clip-path="url(#p9bae1e6323)" style="fill: none; stroke-dasharray: 0.8,1.32; stroke-dashoffset: 0; stroke: #1a1a1a; stroke-width: 0.8"/>
   </g>
   <g id="matplotlib.axis_9"/>
   <g id="matplotlib.axis_10"/>
   <g id="patch_18">
    <path d="M 162.164409 188.220195 
L 184.614803 188.220195 
L 184.614803 180.632878 
L 162.164409 180.632878 
z
" clip-path="url(#p9bae1e6323)" style="fill: #bdbdbd"/>
   </g>
   <g id="patch_19">
    <path d="M 165.566316 184.426536 
Q 166.437804 184.426536 166.191257 184.426536 
" style="fill: none; stroke: #1a1a1a; stroke-linecap: round"/>
    <path d="M 162.591257 182.626536 
L 166.191257 184.426536 
L 162.591257 186.226536 
z
" style="fill: #1a1a1a; stroke: #1a1a1a; stroke-linecap: round"/>
   </g>
   <g id="text_10">
    <text style="font-style: italic; font-weight: 700; font-size: 8.5px; font-family: 'Arial'; text-anchor: end; fill: #1a1a1a" x="45.422362" y="179.67112" transform="rotate(-0 45.422362 179.67112)">dnj-10</text>
   </g>
  </g>
  <g id="axes_6">
   <g id="patch_20">
    <path d="M 310.132913 195.175235 
L 417.28252 195.175235 
L 417.28252 159.767757 
L 310.132913 159.767757 
z
" style="fill: #ffffff"/>
   </g>
   <g id="patch_21">
    <path d="M 310.132913 174.963466 
L 368.172283 174.963466 
L 368.172283 165.22641 
L 310.132913 165.22641 
z
" clip-path="url(#pe68793ca81)" style="fill: #1a1a1a"/>
   </g>
   <g id="patch_22">
    <path d="M 310.132913 189.716582 
L 335.432126 189.716582 
L 335.432126 179.979526 
L 310.132913 179.979526 
z
" clip-path="url(#pe68793ca81)" style="fill: #bdbdbd"/>
   </g>
   <g id="matplotlib.axis_11"/>
   <g id="matplotlib.axis_12"/>
   <g id="text_11">
    <text style="font-size: 7.5px; font-family: 'Arial'; text-anchor: start; fill: #1a1a1a" x="369.660472" y="172.035856" transform="rotate(-0 369.660472 172.035856)">23</text>
   </g>
   <g id="text_12">
    <text style="font-size: 7.5px; font-family: 'Arial'; text-anchor: start; fill: #1a1a1a" x="336.920315" y="186.788972" transform="rotate(-0 336.920315 186.788972)">45</text>
   </g>
  </g>
  <g id="axes_7">
   <g id="patch_23">
    <path d="M 49.912441 248.822929 
L 274.416378 248.822929 
L 274.416378 213.415451 
L 49.912441 213.415451 
z
" style="fill: #ffffff"/>
   </g>
   <g id="line2d_4">
    <path d="M 162.164409 248.822929 
L 162.164409 213.415451 
" clip-path="url(#pdc171c3433)" style="fill: none; stroke-dasharray: 0.8,1.32; stroke-dashoffset: 0; stroke: #1a1a1a; stroke-width: 0.8"/>
   </g>
   <g id="line2d_5">
    <path d="M 58.621323 248.822929 
L 58.621323 213.415451 
" clip-path="url(#pdc171c3433)" style="fill: none; stroke-dasharray: 3.7,1.6; stroke-dashoffset: 0; stroke: #bdbdbd"/>
   </g>
   <g id="matplotlib.axis_13"/>
   <g id="matplotlib.axis_14"/>
   <g id="patch_24">
    <path d="M 162.164409 241.867889 
L 214.717039 241.867889 
L 214.717039 234.280572 
L 162.164409 234.280572 
z
" clip-path="url(#pdc171c3433)" style="fill: #bdbdbd"/>
   </g>
   <g id="patch_25">
    <path d="M 165.566316 238.07423 
Q 166.437804 238.07423 166.191257 238.07423 
" style="fill: none; stroke: #1a1a1a; stroke-linecap: round"/>
    <path d="M 162.591257 236.27423 
L 166.191257 238.07423 
L 162.591257 239.87423 
z
" style="fill: #1a1a1a; stroke: #1a1a1a; stroke-linecap: round"/>
   </g>
   <g id="text_13">
    <text style="font-size: 7px; font-family: 'Arial'; fill: #0072b2" transform="translate(73.259805 213.687337)">6.9×</text>
    <text style="font-size: 7px; font-family: 'Arial'; fill: #0072b2" transform="translate(61.950977 221.237288)">(M03C11.3)</text>
   </g>
   <g id="text_14">
    <text style="font-size: 7px; font-family: 'Arial'; text-anchor: middle; fill: #0072b2" x="160.092425" y="221.897367" transform="rotate(-0 160.092425 221.897367)">13.1×</text>
   </g>
   <g id="text_15">
    <text style="font-style: italic; font-weight: 700; font-size: 8.5px; font-family: 'Arial'; text-anchor: end; fill: #1a1a1a" x="45.422362" y="233.318814" transform="rotate(-0 45.422362 233.318814)">ymel-1</text>
   </g>
   <g id="patch_26">
    <path d="M 71.502236 233.016019 
L 88.835811 233.016019 
L 88.835811 225.428703 
L 71.502236 225.428703 
z
" clip-path="url(#pdc171c3433)" style="fill: #0072b2"/>
   </g>
   <g id="patch_27">
    <path d="M 152.660409 233.016019 
L 167.524441 233.016019 
L 167.524441 225.428703 
L 152.660409 225.428703 
z
" clip-path="url(#pdc171c3433)" style="fill: #0072b2"/>
   </g>
  </g>
  <g id="axes_8">
   <g id="patch_28">
    <path d="M 310.132913 248.822929 
L 417.28252 248.822929 
L 417.28252 213.415451 
L 310.132913 213.415451 
z
" style="fill: #ffffff"/>
   </g>
   <g id="patch_29">
    <path d="M 310.132913 228.61116 
L 316.085669 228.61116 
L 316.085669 218.874104 
L 310.132913 218.874104 
z
" clip-path="url(#p76cb19e72f)" style="fill: #1a1a1a"/>
   </g>
   <g id="patch_30">
    <path d="M 310.132913 243.364276 
L 311.621102 243.364276 
L 311.621102 233.62722 
L 310.132913 233.62722 
z
" clip-path="url(#p76cb19e72f)" style="fill: #bdbdbd"/>
   </g>
   <g id="matplotlib.axis_15"/>
   <g id="matplotlib.axis_16"/>
   <g id="text_16">
    <text style="font-size: 7.5px; font-family: 'Arial'; text-anchor: start; fill: #1a1a1a" x="317.573858" y="225.68355" transform="rotate(-0 317.573858 225.68355)">58</text>
   </g>
   <g id="text_17">
    <text style="font-size: 7.5px; font-family: 'Arial'; text-anchor: start; fill: #1a1a1a" x="313.109291" y="240.436666" transform="rotate(-0 313.109291 240.436666)">61</text>
   </g>
  </g>
  <g id="axes_9">
   <g id="patch_31">
    <path d="M 49.912441 302.470623 
L 274.416378 302.470623 
L 274.416378 267.063145 
L 49.912441 267.063145 
z
" style="fill: #ffffff"/>
   </g>
   <g id="line2d_6">
    <path d="M 162.164409 302.470623 
L 162.164409 267.063145 
" clip-path="url(#p6e237c6368)" style="fill: none; stroke-dasharray: 0.8,1.32; stroke-dashoffset: 0; stroke: #1a1a1a; stroke-width: 0.8"/>
   </g>
   <g id="matplotlib.axis_17"/>
   <g id="matplotlib.axis_18"/>
   <g id="patch_32">
    <path d="M 162.164409 295.515583 
L 179.123811 295.515583 
L 179.123811 287.928266 
L 162.164409 287.928266 
z
" clip-path="url(#p6e237c6368)" style="fill: #bdbdbd"/>
   </g>
   <g id="patch_33">
    <path d="M 165.566316 291.721924 
Q 166.437804 291.721924 166.191257 291.721924 
" style="fill: none; stroke: #1a1a1a; stroke-linecap: round"/>
    <path d="M 162.591257 289.921924 
L 166.191257 291.721924 
L 162.591257 293.521924 
z
" style="fill: #1a1a1a; stroke: #1a1a1a; stroke-linecap: round"/>
   </g>
   <g id="text_18">
    <text style="font-size: 7px; font-family: 'Arial'; text-anchor: middle; fill: #0072b2" x="158.488157" y="275.545061" transform="rotate(-0 158.488157 275.545061)">4.3×</text>
   </g>
   <g id="text_19">
    <text style="font-style: italic; font-size: 8.5px; font-family: 'Arial'; text-anchor: end; fill: #1a1a1a" x="45.422362" y="286.979042" transform="rotate(-0 45.422362 286.979042)">prx-19</text>
   </g>
   <g id="patch_34">
    <path d="M 152.884913 286.663713 
L 164.091402 286.663713 
L 164.091402 279.076397 
L 152.884913 279.076397 
z
" clip-path="url(#p6e237c6368)" style="fill: #0072b2"/>
   </g>
  </g>
  <g id="axes_10">
   <g id="patch_35">
    <path d="M 310.132913 302.470623 
L 417.28252 302.470623 
L 417.28252 267.063145 
L 310.132913 267.063145 
z
" style="fill: #ffffff"/>
   </g>
   <g id="patch_36">
    <path d="M 310.132913 282.258854 
L 372.63685 282.258854 
L 372.63685 272.521798 
L 310.132913 272.521798 
z
" clip-path="url(#p2968580127)" style="fill: #1a1a1a"/>
   </g>
   <g id="patch_37">
    <path d="M 310.132913 297.01197 
L 322.038425 297.01197 
L 322.038425 287.274914 
L 310.132913 287.274914 
z
" clip-path="url(#p2968580127)" style="fill: #bdbdbd"/>
   </g>
   <g id="matplotlib.axis_19"/>
   <g id="matplotlib.axis_20"/>
   <g id="text_20">
    <text style="font-size: 7.5px; font-family: 'Arial'; text-anchor: start; fill: #1a1a1a" x="374.125039" y="279.331244" transform="rotate(-0 374.125039 279.331244)">20</text>
   </g>
   <g id="text_21">
    <text style="font-size: 7.5px; font-family: 'Arial'; text-anchor: start; fill: #1a1a1a" x="323.526614" y="294.08436" transform="rotate(-0 323.526614 294.08436)">54</text>
   </g>
  </g>
  <g id="axes_11">
   <g id="patch_38">
    <path d="M 49.912441 356.118317 
L 274.416378 356.118317 
L 274.416378 320.710839 
L 49.912441 320.710839 
z
" style="fill: #ffffff"/>
   </g>
   <g id="line2d_7">
    <path d="M 162.164409 356.118317 
L 162.164409 320.710839 
" clip-path="url(#p32daf89962)" style="fill: none; stroke-dasharray: 0.8,1.32; stroke-dashoffset: 0; stroke: #1a1a1a; stroke-width: 0.8"/>
   </g>
   <g id="matplotlib.axis_21"/>
   <g id="matplotlib.axis_22"/>
   <g id="patch_39">
    <path d="M 162.164409 349.163277 
L 262.957323 349.163277 
L 262.957323 341.57596 
L 162.164409 341.57596 
z
" clip-path="url(#p32daf89962)" style="fill: #bdbdbd"/>
   </g>
   <g id="patch_40">
    <path d="M 165.566316 345.369619 
Q 166.437804 345.369619 166.191257 345.369619 
" style="fill: none; stroke: #1a1a1a; stroke-linecap: round"/>
    <path d="M 162.591257 343.569619 
L 166.191257 345.369619 
L 162.591257 347.169619 
z
" style="fill: #1a1a1a; stroke: #1a1a1a; stroke-linecap: round"/>
   </g>
   <g id="text_22">
    <text style="font-style: italic; font-size: 8.5px; font-family: 'Arial'; text-anchor: end; fill: #1a1a1a" x="45.422362" y="340.626736" transform="rotate(-0 45.422362 340.626736)">cbp-3</text>
   </g>
  </g>
  <g id="axes_12">
   <g id="patch_41">
    <path d="M 310.132913 356.118317 
L 417.28252 356.118317 
L 417.28252 320.710839 
L 310.132913 320.710839 
z
" style="fill: #ffffff"/>
   </g>
   <g id="patch_42">
    <path d="M 310.132913 335.906548 
L 317.573858 335.906548 
L 317.573858 326.169492 
L 310.132913 326.169492 
z
" clip-path="url(#pe4ae8c1650)" style="fill: #1a1a1a"/>
   </g>
   <g id="patch_43">
    <path d="M 310.132913 350.659664 
L 336.920315 350.659664 
L 336.920315 340.922608 
L 310.132913 340.922608 
z
" clip-path="url(#pe4ae8c1650)" style="fill: #bdbdbd"/>
   </g>
   <g id="matplotlib.axis_23"/>
   <g id="matplotlib.axis_24"/>
   <g id="text_23">
    <text style="font-size: 7.5px; font-family: 'Arial'; text-anchor: start; fill: #1a1a1a" x="319.062047" y="332.978938" transform="rotate(-0 319.062047 332.978938)">57</text>
   </g>
   <g id="text_24">
    <text style="font-size: 7.5px; font-family: 'Arial'; text-anchor: start; fill: #1a1a1a" x="338.408504" y="347.732054" transform="rotate(-0 338.408504 347.732054)">44</text>
   </g>
  </g>
  <g id="axes_13">
   <g id="patch_44">
    <path d="M 49.912441 409.766011 
L 274.416378 409.766011 
L 274.416378 374.358533 
L 49.912441 374.358533 
z
" style="fill: #ffffff"/>
   </g>
   <g id="line2d_8">
    <path d="M 162.164409 409.766011 
L 162.164409 374.358533 
" clip-path="url(#p550b6ab70c)" style="fill: none; stroke-dasharray: 0.8,1.32; stroke-dashoffset: 0; stroke: #1a1a1a; stroke-width: 0.8"/>
   </g>
   <g id="line2d_9">
    <path d="M 143.829921 409.766011 
L 143.829921 374.358533 
" clip-path="url(#p550b6ab70c)" style="fill: none; stroke-dasharray: 3.7,1.6; stroke-dashoffset: 0; stroke: #bdbdbd"/>
   </g>
   <g id="matplotlib.axis_25">
    <g id="xtick_1">
     <g id="line2d_10">
      <defs>
       <path id="m6f18092254" d="M 0 0 
L 0 4 
" style="stroke: #1a1a1a"/>
      </defs>
      <g>
       <use xlink:href="#m6f18092254" x="68.621102" y="409.766011" style="fill: #1a1a1a; stroke: #1a1a1a"/>
      </g>
     </g>
     <g id="text_25">
      <text style="font-size: 8.5px; font-family: 'Arial'; text-anchor: middle; fill: #1a1a1a" x="68.621102" y="423.454244" transform="rotate(-0 68.621102 423.454244)">−10</text>
     </g>
    </g>
    <g id="xtick_2">
     <g id="line2d_11">
      <g>
       <use xlink:href="#m6f18092254" x="115.392756" y="409.766011" style="fill: #1a1a1a; stroke: #1a1a1a"/>
      </g>
     </g>
     <g id="text_26">
      <text style="font-size: 8.5px; font-family: 'Arial'; text-anchor: middle; fill: #1a1a1a" x="115.392756" y="423.454244" transform="rotate(-0 115.392756 423.454244)">−5</text>
     </g>
    </g>
    <g id="xtick_3">
     <g id="line2d_12">
      <g>
       <use xlink:href="#m6f18092254" x="162.164409" y="409.766011" style="fill: #1a1a1a; stroke: #1a1a1a"/>
      </g>
     </g>
     <g id="text_27">
      <text style="font-size: 8.5px; font-family: 'Arial'; text-anchor: middle; fill: #1a1a1a" x="162.164409" y="423.454244" transform="rotate(-0 162.164409 423.454244)">0</text>
     </g>
    </g>
    <g id="xtick_4">
     <g id="line2d_13">
      <g>
       <use xlink:href="#m6f18092254" x="208.936063" y="409.766011" style="fill: #1a1a1a; stroke: #1a1a1a"/>
      </g>
     </g>
     <g id="text_28">
      <text style="font-size: 8.5px; font-family: 'Arial'; text-anchor: middle; fill: #1a1a1a" x="208.936063" y="423.454244" transform="rotate(-0 208.936063 423.454244)">5</text>
     </g>
    </g>
    <g id="xtick_5">
     <g id="line2d_14">
      <g>
       <use xlink:href="#m6f18092254" x="255.707717" y="409.766011" style="fill: #1a1a1a; stroke: #1a1a1a"/>
      </g>
     </g>
     <g id="text_29">
      <text style="font-size: 8.5px; font-family: 'Arial'; text-anchor: middle; fill: #1a1a1a" x="255.707717" y="423.454244" transform="rotate(-0 255.707717 423.454244)">10</text>
     </g>
    </g>
    <g id="text_30">
     <text style="font-size: 9.5px; font-family: 'Arial'; text-anchor: middle; fill: #1a1a1a" x="162.164409" y="436.159322" transform="rotate(-0 162.164409 436.159322)">Position relative to TSS (kb, 5′→ 3′)</text>
    </g>
   </g>
   <g id="matplotlib.axis_26"/>
   <g id="patch_45">
    <path d="M 162.164409 402.810971 
L 178.796409 402.810971 
L 178.796409 395.223654 
L 162.164409 395.223654 
z
" clip-path="url(#p550b6ab70c)" style="fill: #bdbdbd"/>
   </g>
   <g id="patch_46">
    <path d="M 49.912441 409.766011 
L 274.416378 409.766011 
" style="fill: none; stroke: #1a1a1a; stroke-linejoin: miter; stroke-linecap: square"/>
   </g>
   <g id="patch_47">
    <path d="M 165.566316 399.017313 
Q 166.437804 399.017313 166.191257 399.017313 
" style="fill: none; stroke: #1a1a1a; stroke-linecap: round"/>
    <path d="M 162.591257 397.217313 
L 166.191257 399.017313 
L 162.591257 400.817313 
z
" style="fill: #1a1a1a; stroke: #1a1a1a; stroke-linecap: round"/>
   </g>
   <g id="text_31">
    <text style="font-size: 7px; font-family: 'Arial'; text-anchor: middle; fill: #0072b2" x="171.411165" y="382.840449" transform="rotate(-0 171.411165 382.840449)">3.4×</text>
   </g>
   <g id="text_32">
    <text style="font-style: italic; font-size: 8.5px; font-family: 'Arial'; text-anchor: end; fill: #1a1a1a" x="45.422362" y="394.27443" transform="rotate(-0 45.422362 394.27443)">tspo-1</text>
   </g>
   <g id="patch_48">
    <path d="M 163.941732 393.959101 
L 178.880598 393.959101 
L 178.880598 386.371785 
L 163.941732 386.371785 
z
" clip-path="url(#p550b6ab70c)" style="fill: #0072b2"/>
   </g>
  </g>
  <g id="axes_14">
   <g id="patch_49">
    <path d="M 310.132913 409.766011 
L 417.28252 409.766011 
L 417.28252 374.358533 
L 310.132913 374.358533 
z
" style="fill: #ffffff"/>
   </g>
   <g id="patch_50">
    <path d="M 310.132913 389.554243 
L 371.148661 389.554243 
L 371.148661 379.817186 
L 310.132913 379.817186 
z
" clip-path="url(#p771e964ab1)" style="fill: #1a1a1a"/>
   </g>
   <g id="patch_51">
    <path d="M 310.132913 404.307358 
L 339.896693 404.307358 
L 339.896693 394.570302 
L 310.132913 394.570302 
z
" clip-path="url(#p771e964ab1)" style="fill: #bdbdbd"/>
   </g>
   <g id="matplotlib.axis_27">
    <g id="xtick_6">
     <g id="line2d_15">
      <g>
       <use xlink:href="#m6f18092254" x="310.132913" y="409.766011" style="fill: #1a1a1a; stroke: #1a1a1a"/>
      </g>
     </g>
     <g id="text_33">
      <text style="font-size: 8.5px; font-family: 'Arial'; text-anchor: middle; fill: #1a1a1a" x="310.132913" y="423.454244" transform="rotate(-0 310.132913 423.454244)">0</text>
     </g>
    </g>
    <g id="xtick_7">
     <g id="line2d_16">
      <g>
       <use xlink:href="#m6f18092254" x="339.896693" y="409.766011" style="fill: #1a1a1a; stroke: #1a1a1a"/>
      </g>
     </g>
     <g id="text_34">
      <text style="font-size: 8.5px; font-family: 'Arial'; text-anchor: middle; fill: #1a1a1a" x="339.896693" y="423.454244" transform="rotate(-0 339.896693 423.454244)">20</text>
     </g>
    </g>
    <g id="xtick_8">
     <g id="line2d_17">
      <g>
       <use xlink:href="#m6f18092254" x="369.660472" y="409.766011" style="fill: #1a1a1a; stroke: #1a1a1a"/>
      </g>
     </g>
     <g id="text_35">
      <text style="font-size: 8.5px; font-family: 'Arial'; text-anchor: middle; fill: #1a1a1a" x="369.660472" y="423.454244" transform="rotate(-0 369.660472 423.454244)">40</text>
     </g>
    </g>
    <g id="xtick_9">
     <g id="line2d_18">
      <g>
       <use xlink:href="#m6f18092254" x="399.424252" y="409.766011" style="fill: #1a1a1a; stroke: #1a1a1a"/>
      </g>
     </g>
     <g id="text_36">
      <text style="font-size: 8.5px; font-family: 'Arial'; text-anchor: middle; fill: #1a1a1a" x="399.424252" y="423.454244" transform="rotate(-0 399.424252 423.454244)">60</text>
     </g>
    </g>
    <g id="text_37">
     <text style="font-size: 9.5px; font-family: 'Arial'; text-anchor: middle; fill: #1a1a1a" x="363.707717" y="436.159322" transform="rotate(-0 363.707717 436.159322)">Rank (of 61–62)</text>
    </g>
   </g>
   <g id="matplotlib.axis_28"/>
   <g id="patch_52">
    <path d="M 310.132913 409.766011 
L 417.28252 409.766011 
" style="fill: none; stroke: #1a1a1a; stroke-linejoin: miter; stroke-linecap: square"/>
   </g>
   <g id="text_38">
    <text style="font-size: 7.5px; font-family: 'Arial'; text-anchor: start; fill: #1a1a1a" x="372.63685" y="386.626632" transform="rotate(-0 372.63685 386.626632)">21</text>
   </g>
   <g id="text_39">
    <text style="font-size: 7.5px; font-family: 'Arial'; text-anchor: start; fill: #1a1a1a" x="341.384882" y="401.379748" transform="rotate(-0 341.384882 401.379748)">42</text>
   </g>
  </g>
  <g id="text_40">
   <text style="font-weight: 700; font-size: 13px; font-family: 'Arial'; text-anchor: start; fill: #1a1a1a" x="1.44" y="10.904355" transform="rotate(-0 1.44 10.904355)">A</text>
  </g>
  <g id="text_41">
   <text style="font-weight: 700; font-size: 13px; font-family: 'Arial'; text-anchor: start; fill: #1a1a1a" x="282.069921" y="10.904355" transform="rotate(-0 282.069921 10.904355)">B</text>
  </g>
  <g id="text_42">
   <text style="font-size: 9.5px; font-family: 'Arial'; text-anchor: middle; fill: #1a1a1a" x="162.164409" y="8.828893" transform="rotate(-0 162.164409 8.828893)">ATFS-1 ChIP occupancy at the promoter</text>
  </g>
  <g id="text_43">
   <text style="font-size: 9.5px; font-family: 'Arial'; text-anchor: middle; fill: #1a1a1a" x="363.707717" y="8.829079" transform="rotate(-0 363.707717 8.829079)">Induction rank</text>
  </g>
  <g id="legend_1">
   <g id="patch_53">
    <path d="M 117.557067 450.913986 
L 133.557067 450.913986 
L 133.557067 445.313986 
L 117.557067 445.313986 
z
" style="fill: #0072b2; stroke: #0072b2; stroke-linejoin: miter"/>
   </g>
   <g id="text_44">
    <text style="font-size: 8px; font-family: 'Arial'; text-anchor: start; fill: #1a1a1a" x="137.557067" y="450.913986" transform="rotate(-0 137.557067 450.913986)">ATFS-1 peak, gene called bound</text>
   </g>
   <g id="patch_54">
    <path d="M 117.557067 461.221955 
L 133.557067 461.221955 
L 133.557067 455.621955 
L 117.557067 455.621955 
z
" style="fill: #bdbdbd; stroke: #bdbdbd; stroke-linejoin: miter"/>
   </g>
   <g id="text_45">
    <text style="font-size: 8px; font-family: 'Arial'; text-anchor: start; fill: #1a1a1a" x="137.557067" y="461.221955" transform="rotate(-0 137.557067 461.221955)">Gene body (A); Score rank (B)</text>
   </g>
   <g id="patch_55">
    <path d="M 273.119567 450.913986 
L 289.119567 450.913986 
L 289.119567 445.313986 
L 273.119567 445.313986 
z
" style="fill: #1a1a1a; stroke: #1a1a1a; stroke-linejoin: miter"/>
   </g>
   <g id="text_46">
    <text style="font-size: 8px; font-family: 'Arial'; text-anchor: start; fill: #1a1a1a" x="293.119567" y="450.913986" transform="rotate(-0 293.119567 450.913986)">Score/variability rank (B)</text>
   </g>
   <g id="line2d_19">
    <path d="M 273.119567 458.426486 
L 281.119567 458.426486 
L 289.119567 458.426486 
" style="fill: none; stroke-dasharray: 3.7,1.6; stroke-dashoffset: 0; stroke: #bdbdbd"/>
   </g>
   <g id="text_47">
    <text style="font-size: 8px; font-family: 'Arial'; text-anchor: start; fill: #1a1a1a" x="293.119567" y="461.226486" transform="rotate(-0 293.119567 461.226486)">Operon head TSS (A)</text>
   </g>
  </g>
 </g>
 <defs>
  <clipPath id="p0a4ae31b99">
   <rect x="49.912441" y="52.472369" width="224.503937" height="35.407478"/>
  </clipPath>
  <clipPath id="p2b48bb91ea">
   <rect x="310.132913" y="52.472369" width="107.149606" height="35.407478"/>
  </clipPath>
  <clipPath id="pa47a96a5bf">
   <rect x="49.912441" y="106.120063" width="224.503937" height="35.407478"/>
  </clipPath>
  <clipPath id="p40925d1037">
   <rect x="310.132913" y="106.120063" width="107.149606" height="35.407478"/>
  </clipPath>
  <clipPath id="p9bae1e6323">
   <rect x="49.912441" y="159.767757" width="224.503937" height="35.407478"/>
  </clipPath>
  <clipPath id="pe68793ca81">
   <rect x="310.132913" y="159.767757" width="107.149606" height="35.407478"/>
  </clipPath>
  <clipPath id="pdc171c3433">
   <rect x="49.912441" y="213.415451" width="224.503937" height="35.407478"/>
  </clipPath>
  <clipPath id="p76cb19e72f">
   <rect x="310.132913" y="213.415451" width="107.149606" height="35.407478"/>
  </clipPath>
  <clipPath id="p6e237c6368">
   <rect x="49.912441" y="267.063145" width="224.503937" height="35.407478"/>
  </clipPath>
  <clipPath id="p2968580127">
   <rect x="310.132913" y="267.063145" width="107.149606" height="35.407478"/>
  </clipPath>
  <clipPath id="p32daf89962">
   <rect x="49.912441" y="320.710839" width="224.503937" height="35.407478"/>
  </clipPath>
  <clipPath id="pe4ae8c1650">
   <rect x="310.132913" y="320.710839" width="107.149606" height="35.407478"/>
  </clipPath>
  <clipPath id="p550b6ab70c">
   <rect x="49.912441" y="374.358533" width="224.503937" height="35.407478"/>
  </clipPath>
  <clipPath id="p771e964ab1">
   <rect x="310.132913" y="374.358533" width="107.149606" height="35.407478"/>
  </clipPath>
 </defs>
</svg>
